Coordinates
nRows=17
nColumns=24

# SIMM Motion File Header:
name Coordinates
datacolumns 24
datarows 17
otherdata 1
range 0.89100000000000001000 0.90700000000000003000
endheader
time	pelvis_tx	pelvis_ty	pelvis_tz	pelvis_tilt	pelvis_list	pelvis_rotation	hip_flexion_r	hip_adduction_r	hip_rotation_r	knee_angle_r	ankle_angle_r	subtalar_angle_r	mtp_angle_r	hip_flexion_l	hip_adduction_l	hip_rotation_l	knee_angle_l	ankle_angle_l	subtalar_angle_l	mtp_angle_l	lumbar_extension	lumbar_bending	lumbar_rotation
      0.89100000000000001000	      0.91329993415734489000	      0.82186481119349009000	     -0.24761804672204155000	     -2.93472853270800060000	     -1.91278391150766720000	     -2.48583959992084450000	      4.37182084246660190000	      4.70165460296931050000	      1.84307624177729900000	     -8.95734606952623300000	      5.19601069286904150000	     -0.00000000000002889441	      0.00000000000021412233	     29.35460111514842700000	     -4.25960585091619140000	      0.02526189258178231100	    -50.81327108474280900000	      4.89230477862108690000	     -0.00000000000002933677	     -0.00000000000004102501	      6.94787794595890240000	     -3.07381403260611390000	     14.11380037139254800000
      0.89200000000000002000	      0.91415930578448057000	      0.82178454022227443000	     -0.24759209916376806000	     -2.93387689003034690000	     -1.88167470397869830000	     -2.52353502285751310000	      4.27433230698183840000	      4.67950364359522820000	      1.87555101302486720000	     -8.91944541375077900000	      5.23209846883944250000	     -0.00000000000002909667	      0.00000000000021509950	     29.41667633724787100000	     -4.22003986591396170000	      0.00264751899095364480	    -50.53232699608304300000	      4.94034786589032220000	     -0.00000000000002916292	     -0.00000000000004222162	      6.93791394838187970000	     -3.11194920777520600000	     14.16359042255455100000
      0.89300000000000002000	      0.91501877681592891000	      0.82170334591591554000	     -0.24756644499058778000	     -2.93314672175838980000	     -1.85050675020160240000	     -2.56133651260202640000	      4.17710657550029300000	      4.65723522509579800000	      1.90865012683608600000	     -8.88179770900299200000	      5.26804901835167170000	     -0.00000000000002930139	      0.00000000000021609340	     29.47819514087851500000	     -4.18049549843084560000	     -0.02009723892172901900	    -50.25013293860493500000	      4.98728880856294140000	     -0.00000000000002898865	     -0.00000000000004341818	      6.92813918281565580000	     -3.15006080034552440000	     14.21333344678187100000
      0.89400000000000002000	      0.91587854606031471000	      0.82161938160412762000	     -0.24754167097268706000	     -2.93278097670352310000	     -1.81916255768012600000	     -2.59945620277007320000	      4.08066925602840590000	      4.63461442922031970000	      1.94362226833825510000	     -8.84490885733820240000	      5.30358788848938810000	     -0.00000000000002951353	      0.00000000000021713748	     29.53804468910276900000	     -4.14101598350506970000	     -0.04323314979997327400	    -49.96418897467179200000	      5.03092331744571460000	     -0.00000000000002881312	     -0.00000000000004461465	      6.91893211328182910000	     -3.18810164511952230000	     14.26293539020514200000
      0.89500000000000002000	      0.91673831530470062000	      0.82153541729233959000	     -0.24751689695478632000	     -2.93241523164865600000	     -1.78781836515864940000	     -2.63757589293812030000	      3.98423193655651840000	      4.61199363334484240000	      1.97859440984042420000	     -8.80802000567341460000	      5.33912675862710360000	     -0.00000000000002972567	      0.00000000000021818156	     29.59789423732702600000	     -4.10153646857929390000	     -0.06636906067821753100	    -49.67824501073864200000	      5.07455782632848870000	     -0.00000000000002863759	     -0.00000000000004581111	      6.90972504374800240000	     -3.22614248989351980000	     14.31253733362841300000
      0.89600000000000002000	      0.91759854769959104000	      0.82144803040945091000	     -0.24749335067214093000	     -2.93246604101742530000	     -1.75624344294541810000	     -2.67608480770536160000	      3.88875366067645210000	      4.58887767606288130000	      2.01579965459628770000	     -8.77209891632661960000	      5.37414112999321160000	     -0.00000000000002991709	      0.00000000000021917753	     29.65557008627988400000	     -4.06211498145860620000	     -0.08995228533843946400	    -49.38767379009785000000	      5.11405861409563390000	     -0.00000000000002846316	     -0.00000000000004702146	      6.90119192407691170000	     -3.26407574934446790000	     14.36192090911939600000
      0.89700000000000002000	      0.91845878009448145000	      0.82136064352656235000	     -0.24746980438949553000	     -2.93251685038619490000	     -1.72466852073218660000	     -2.71459372247260330000	      3.79327538479638670000	      4.56576171878092030000	      2.05300489935215280000	     -8.73617782697982650000	      5.40915550135931870000	     -0.00000000000003010850	      0.00000000000022017351	     29.71324593523274500000	     -4.02269349433791930000	     -0.11353550999866166000	    -49.09710256945705700000	      5.15355940186277640000	     -0.00000000000002828872	     -0.00000000000004823182	      6.89265880440582100000	     -3.30200900879541590000	     14.41130448461037800000
      0.89800000000000002000	      0.91931942024805502000	      0.82127060173330990000	     -0.24744732584970319000	     -2.93286679361597000000	     -1.69293095930888990000	     -2.75341073032974750000	      3.69855501874632030000	      4.54223976324441650000	      2.09196889562648190000	     -8.70107975566740780000	      5.44371165945959050000	     -0.00000000000003026795	      0.00000000000022104377	     29.76916122528999900000	     -3.98332908322786410000	     -0.13742409730207558000	    -48.80296637512520200000	      5.18980111975367380000	     -0.00000000000002810699	     -0.00000000000004947090	      6.88462477544677040000	     -3.33980580090436390000	     14.46048535092475600000
      0.89900000000000002000	      0.92018019632118964000	      0.82117967496993627000	     -0.24742520322419523000	     -2.93331644813274740000	     -1.66113918481557170000	     -2.79233043588352590000	      3.60408728930625430000	      4.51858247495639810000	      2.13151914240696700000	     -8.66625602369977880000	      5.47811507980458320000	     -0.00000000000003041676	      0.00000000000022187212	     29.82448966238204900000	     -3.94398369745468540000	     -0.16141447215322033000	    -48.50764185622966100000	      5.22495648101915310000	     -0.00000000000002792283	     -0.00000000000005071954	      6.87675711005839840000	     -3.37755710389931220000	     14.50959864751360100000
      0.90000000000000002000	      0.92104112230561630000	      0.82108780411975923000	     -0.24740348328389677000	     -2.93388566321563760000	     -1.62928797763499240000	     -2.83136890928448270000	      3.50992455479998000000	      4.49476676629846850000	      2.17171861413685630000	     -8.63176380630151390000	      5.51230403922288750000	     -0.00000000000003055520	      0.00000000000022265361	     29.87921442586731400000	     -3.90465586327858900000	     -0.18549640305906720000	    -48.21110200210875300000	      5.25894302545991100000	     -0.00000000000002774197	     -0.00000000000005195517	      6.86908312580230710000	     -3.41524886196354330000	     14.55864020624777300000
      0.90100000000000002000	      0.92190249802391877000	      0.82099310100917255000	     -0.24738297139922688000	     -2.93481355999686540000	     -1.59725847239263060000	     -2.87076368622697320000	      3.41667680509508200000	      4.47047579653080260000	      2.21386576071496140000	     -8.59826613261133770000	      5.54584961586112260000	     -0.00000000000003066256	      0.00000000000022329452	     29.93212816853222300000	     -3.86538068389373950000	     -0.20985300212902058000	    -47.91091614231174800000	      5.28942311942650000000	     -0.00000000000002757102	     -0.00000000000005315173	      6.86199018494305420000	     -3.45276198523562350000	     14.60746655141793400000
      0.90200000000000002000	      0.92276387374222124000	      0.82089839789858587000	     -0.24736245951455696000	     -2.93574145677809330000	     -1.56522896715026880000	     -2.91015846316946410000	      3.32342905539018440000	      4.44618482676313680000	      2.25601290729306610000	     -8.56476845892116150000	      5.57939519249935680000	     -0.00000000000003076992	      0.00000000000022393542	     29.98504191119712900000	     -3.82610550450888990000	     -0.23420960119897399000	    -47.61073028251474400000	      5.31990321339308990000	     -0.00000000000002740007	     -0.00000000000005434829	      6.85489724408380140000	     -3.49027510850770330000	     14.65629289658809500000
      0.90300000000000002000	      0.92362575335419905000	      0.82080084409355258000	     -0.24734324763181090000	     -2.93706069132627160000	     -1.53298655170985890000	     -2.94993448255333890000	      3.23117812070924070000	      4.42133806856132950000	      2.30018450365543940000	     -8.53234527384847570000	      5.61226201168946210000	     -0.00000000000003085895	      0.00000000000022452210	     30.03617053492136100000	     -3.78684022565165450000	     -0.25878331264056009000	    -47.30699978634362400000	      5.34679518404209460000	     -0.00000000000002722864	     -0.00000000000005556826	      6.84843507895259850000	     -3.52760939192556980000	     14.70490153791141100000
      0.90400000000000003000	      0.92448780093073513000	      0.82070234005703724000	     -0.24732446908303943000	     -2.93851037179676670000	     -1.50067316620343290000	     -2.98983758275100800000	      3.13925945770294800000	      4.39630604754814150000	      2.34503091661256890000	     -8.50028025164828800000	      5.64490257839685670000	     -0.00000000000003094186	      0.00000000000022509071	     30.08670411899870300000	     -3.74757824697029030000	     -0.28342939487269042000	    -47.00208774471446600000	      5.37249111358523730000	     -0.00000000000002705704	     -0.00000000000005679604	      6.84218317239741310000	     -3.56488406205869830000	     14.75343761128577700000
      0.90500000000000003000	      0.92535002596308003000	      0.82060299181946439000	     -0.24730611390012028000	     -2.94007377048362350000	     -1.46828690181042630000	     -3.02985294863427330000	      3.04763714935756490000	      4.37108535474718530000	      2.39048310156036250000	     -8.46853772855752500000	      5.67740310772255000000	     -0.00000000000003101559	      0.00000000000022562166	     30.13669616530153700000	     -3.70830328636529400000	     -0.30811660324366025000	    -46.69614141413944000000	      5.39710745444953060000	     -0.00000000000002688546	     -0.00000000000005803781	      6.83612021780454350000	     -3.60210736993130580000	     14.80190000567707100000
      0.90600000000000003000	      0.92621278336285118000	      0.82050111097871892000	     -0.24728902881475812000	     -2.94197832381956430000	     -1.43568200075767760000	     -3.07020511157432760000	      2.95690390499490880000	      4.34529864658292640000	      2.43775260248014550000	     -8.43776270279503570000	      5.70948352490314190000	     -0.00000000000003106176	      0.00000000000022603968	     30.18506359828085200000	     -3.66898937998940240000	     -0.33292719003114846000	    -46.38709221672679900000	      5.41848502927728150000	     -0.00000000000002671395	     -0.00000000000005932157	      6.83062411909862450000	     -3.63917659102234920000	     14.85014136311914400000
      0.90700000000000003000	      0.92707573819111655000	      0.82039838441758794000	     -0.24727241047697859000	     -2.94400105812945690000	     -1.40301381928149580000	     -3.11065774154410460000	      2.86647570927605160000	      4.31932289180065520000	      2.48559281738256830000	     -8.40731781874767490000	      5.74148167828848170000	     -0.00000000000003109787	      0.00000000000022642026	     30.23289882871468800000	     -3.62966267751263590000	     -0.35774208468505025000	    -46.07704692026127400000	      5.43880239003034930000	     -0.00000000000002654600	     -0.00000000000006060419	      6.82532317869421150000	     -3.67617624518214650000	     14.89828836778462900000
